# xmcd
#
# Track frame offsets:
#	150
#	79230
#	99177
#	162467
#	211992
# Disc length: 3536 seconds
# Revision: 1
# Processed by: cddbd v1.5.1PL0 Copyright (c) Steve Scherf et al.
#
# Submitted via: libkcddb 0.10
#
DISCID=370dce05
DTITLE=Terence Blanchard - Flow
DYEAR=2005
DGENRE=Jazz
TTITLE0=Flow, Part 1
TTITLE1=Wadagbe (Intro)
TTITLE2=Wadagbe
TTITLE3=Benny's Tune
TTITLE4=Wandering Wonder
EXTD=YEAR: 2005
EXTT0=
EXTT1=
EXTT2=
EXTT3=
EXTT4=
PLAYORDER=
